<?xml version="1.0" encoding="UTF-8"?>
<svg xmlns="http://www.w3.org/2000/svg" xmlns:xlink="http://www.w3.org/1999/xlink" width="900px" height="450px" viewBox="0 0 900 450" version="1.1">
<g id="surface1">
<path style=" stroke:none;fill-rule:nonzero;fill:rgb(0%,0%,0%);fill-opacity:1;" d="M 818.226562 34.734375 C 817.945312 36.632812 817.734375 39.164062 817.734375 40.429688 C 817.734375 43.101562 816.960938 43.875 813.023438 45.070312 C 808.734375 46.265625 809.085938 47.8125 813.515625 47.8125 C 816.890625 47.8125 818.15625 48.65625 815.976562 49.5 C 814.429688 50.0625 814.710938 51.328125 816.328125 51.328125 C 817.945312 51.328125 818.015625 51.539062 816.890625 53.4375 C 816.1875 54.492188 816.1875 55.195312 816.75 56.109375 C 817.875 57.796875 816.679688 97.734375 815.273438 106.875 C 813.726562 117.421875 812.601562 120.304688 808.59375 124.3125 C 806.625 126.28125 805.078125 128.390625 805.078125 129.09375 C 805.078125 131.835938 806.835938 135.914062 808.734375 137.460938 L 810.773438 139.148438 L 809.367188 141.820312 C 808.664062 143.296875 806.414062 146.039062 804.375 147.9375 C 800.789062 151.242188 800.648438 151.664062 802.40625 154.195312 C 803.179688 155.179688 803.109375 155.53125 802.335938 156.09375 C 801.492188 156.585938 801.492188 156.867188 802.195312 157.78125 C 802.6875 158.34375 802.898438 159.46875 802.617188 160.242188 C 802.40625 160.945312 802.546875 161.789062 802.96875 162.070312 C 803.390625 162.28125 803.671875 165.304688 803.671875 169.101562 C 803.671875 174.65625 803.460938 175.851562 802.476562 176.414062 C 801.28125 177.046875 801.28125 177.117188 802.476562 178.382812 C 803.953125 180.070312 804.09375 183.9375 802.617188 184.5 C 802.054688 184.710938 801.5625 185.625 801.5625 186.539062 C 801.5625 187.734375 800.859375 188.507812 799.101562 189.351562 C 791.226562 193.148438 785.53125 203.90625 785.390625 215.226562 C 785.390625 217.265625 784.96875 218.8125 784.335938 219.375 C 783.351562 220.21875 783.492188 220.640625 785.742188 222.890625 L 788.203125 225.421875 L 788.203125 246.9375 L 786.65625 246.515625 C 785.742188 246.304688 784.828125 246.09375 784.617188 246.09375 C 784.40625 246.09375 783.984375 244.125 783.773438 241.664062 C 783.492188 238.359375 783.632812 237.023438 784.476562 236.109375 C 785.882812 234.492188 785.109375 231.046875 783 230.0625 C 781.734375 229.5 781.3125 228.445312 780.539062 223.523438 C 778.992188 213.609375 777.796875 210.164062 774.773438 207.070312 C 773.296875 205.523438 771.890625 203.203125 771.609375 201.9375 C 771.328125 200.601562 770.34375 199.054688 769.148438 198.210938 C 766.617188 196.382812 765 191.25 765 184.78125 C 765 182.179688 764.71875 180 764.4375 180 C 764.085938 180 763.523438 182.953125 763.101562 186.609375 C 762.1875 194.0625 760.921875 197.085938 758.039062 198.5625 C 756.5625 199.335938 755.929688 200.320312 755.648438 202.289062 C 755.296875 204.1875 754.3125 205.804688 752.414062 207.703125 C 750.164062 209.882812 749.601562 211.007812 749.25 213.960938 C 748.96875 216 748.265625 220.429688 747.632812 223.804688 C 746.648438 229.359375 746.367188 230.0625 744.539062 231.046875 C 742.992188 231.820312 742.5 232.59375 742.5 234.070312 C 742.5 235.195312 742.78125 236.25 743.0625 236.390625 C 743.414062 236.460938 743.90625 238.851562 744.117188 241.664062 L 744.609375 246.65625 L 742.5 247.429688 L 740.390625 248.132812 L 740.390625 254.109375 C 740.390625 257.414062 740.109375 260.226562 739.757812 260.507812 C 739.40625 260.71875 738.210938 259.3125 737.085938 257.34375 C 734.695312 253.054688 733.007812 252.773438 732.023438 256.429688 C 731.601562 257.90625 731.25 259.523438 731.25 259.945312 C 731.25 260.4375 731.039062 260.859375 730.828125 260.859375 C 730.617188 260.859375 727.382812 259.03125 723.65625 256.78125 L 716.835938 252.773438 L 572.835938 252.070312 L 572.976562 247.078125 C 573.117188 243.210938 572.90625 241.875 571.992188 241.171875 C 569.953125 239.484375 569.25 237.375 568.828125 231.046875 C 568.40625 225.773438 568.125 224.578125 566.859375 223.523438 C 565.453125 222.398438 565.3125 221.695312 565.3125 213.46875 C 565.3125 208.617188 565.101562 204.609375 564.820312 204.609375 C 564.46875 204.609375 564.1875 208.617188 564.046875 213.539062 C 563.90625 221.203125 563.695312 222.539062 562.570312 223.382812 C 561.585938 224.015625 561.234375 225.421875 560.953125 229.710938 C 560.742188 233.71875 560.109375 236.390625 558.773438 239.34375 C 557.15625 242.789062 556.875 244.40625 556.875 249.679688 L 556.875 255.9375 L 550.617188 255.9375 L 549.5625 259.59375 C 549 261.632812 548.15625 264.65625 547.734375 266.273438 L 546.960938 269.296875 L 530.15625 269.296875 L 530.15625 263.25 C 530.15625 258.890625 529.945312 257.273438 529.3125 257.484375 C 528.820312 257.695312 527.132812 262.828125 525.445312 269.015625 L 522.421875 280.195312 L 522.421875 293.203125 L 522.351562 306.210938 L 513 323.4375 C 507.09375 334.265625 503.085938 340.734375 502.382812 340.875 C 501.1875 341.15625 501.1875 339.890625 501.46875 321.398438 L 501.820312 301.570312 L 504.140625 299.179688 L 506.53125 296.71875 L 503.929688 296.71875 C 501.328125 296.71875 501.328125 296.71875 501.328125 293.695312 C 501.328125 291.445312 500.90625 290.25 499.851562 289.265625 C 498.65625 288.210938 498.445312 287.367188 498.726562 284.976562 C 499.007812 282.375 498.867188 281.953125 497.671875 281.953125 C 496.40625 281.953125 496.335938 281.320312 496.617188 265.21875 C 496.828125 256.078125 496.96875 248.203125 497.039062 247.851562 C 497.109375 247.429688 496.96875 246.234375 496.6875 245.179688 C 496.335938 243.5625 496.617188 242.789062 498.585938 240.75 L 500.90625 238.359375 L 498.65625 238.359375 C 496.40625 238.359375 496.40625 238.289062 496.40625 234.984375 C 496.40625 233.15625 496.757812 231.257812 497.179688 230.835938 C 497.742188 230.273438 497.742188 229.921875 497.179688 229.640625 C 496.125 228.9375 496.195312 220.570312 497.25 219.515625 C 497.882812 218.882812 497.53125 218.671875 495.492188 218.671875 L 492.890625 218.671875 L 492.890625 214.171875 C 492.890625 211.640625 492.609375 209.390625 492.1875 209.179688 C 491.34375 208.617188 491.203125 181.6875 492.046875 181.125 C 492.398438 180.914062 492.539062 179.859375 492.398438 178.804688 C 492.1875 177.398438 492.539062 176.414062 493.523438 175.5 C 495.492188 173.742188 495.351562 172.96875 493.3125 172.96875 C 491.695312 172.96875 491.554688 172.617188 491.132812 168.398438 C 490.78125 165.234375 490.851562 163.476562 491.484375 162.773438 C 492.1875 161.929688 491.976562 161.71875 490.570312 161.367188 L 488.8125 160.875 L 490.21875 158.484375 C 490.992188 157.148438 491.273438 156.09375 490.851562 156.09375 C 490.429688 156.09375 489.585938 155.109375 488.953125 153.84375 C 487.898438 151.875 487.898438 151.59375 488.953125 151.03125 C 490.289062 150.257812 489.65625 148.359375 487.96875 148.359375 C 486.351562 148.359375 485.015625 149.976562 485.578125 151.382812 C 486.140625 152.859375 483.609375 154.265625 482.484375 153.140625 C 481.289062 151.945312 481.429688 149.695312 482.835938 148.710938 C 483.820312 148.007812 483.890625 147.585938 483.1875 146.742188 C 482.484375 145.898438 482.484375 145.617188 483.257812 145.335938 C 483.820312 145.125 484.453125 143.367188 484.734375 141.257812 C 485.226562 137.8125 485.015625 137.179688 481.921875 130.992188 C 478.828125 124.804688 478.546875 123.890625 478.265625 117.984375 C 478.054688 113.554688 478.195312 111.164062 478.898438 109.96875 C 479.601562 108.5625 479.601562 108.070312 478.96875 107.648438 C 477.351562 106.664062 476.859375 103.148438 477.984375 101.390625 C 478.828125 100.125 478.828125 99.421875 478.265625 98.085938 C 477.773438 97.101562 477.140625 96.328125 476.71875 96.328125 C 476.296875 96.328125 476.015625 94.429688 476.015625 91.757812 C 476.015625 89.15625 475.734375 87.1875 475.3125 87.1875 C 474.890625 87.1875 474.609375 89.15625 474.609375 91.6875 C 474.609375 94.78125 474.257812 96.398438 473.554688 97.03125 C 472.359375 98.015625 472.148438 100.96875 473.273438 101.601562 C 474.1875 102.234375 473.414062 106.171875 471.9375 107.789062 C 471.023438 108.84375 470.953125 109.195312 471.726562 109.6875 C 473.132812 110.53125 473.484375 116.71875 472.5 121.851562 C 472.078125 124.242188 470.460938 128.460938 468.914062 131.203125 C 465.960938 136.617188 465.257812 141.890625 467.15625 144.492188 C 467.648438 145.195312 467.929688 146.320312 467.789062 147.023438 C 467.578125 147.65625 467.789062 148.429688 468.210938 148.640625 C 469.195312 149.273438 469.195312 152.367188 468.28125 152.929688 C 466.804688 153.84375 465.046875 152.578125 465.117188 150.609375 C 465.117188 149.132812 464.765625 148.640625 463.5 148.5 C 461.8125 148.21875 460.335938 150.539062 461.8125 151.03125 C 463.078125 151.453125 462.867188 152.859375 461.179688 154.96875 C 459.773438 156.726562 459.773438 156.9375 460.828125 158.554688 C 462.304688 160.734375 462.304688 160.804688 460.125 161.296875 C 458.507812 161.71875 458.4375 161.929688 459.28125 162.632812 C 460.125 163.265625 460.265625 164.53125 459.984375 168.1875 C 459.703125 172.6875 459.5625 172.96875 458.015625 172.96875 C 455.976562 172.96875 455.90625 173.742188 457.734375 175.429688 C 458.859375 176.414062 459.070312 177.257812 458.71875 179.015625 C 458.507812 180.28125 458.648438 181.40625 459.070312 181.6875 C 460.195312 182.460938 460.125 207.5625 459 208.6875 C 458.367188 209.320312 458.15625 211.148438 458.296875 214.101562 L 458.578125 218.671875 L 455.625 218.671875 C 452.953125 218.671875 452.8125 218.742188 453.796875 219.796875 C 454.992188 220.992188 455.414062 228.164062 454.289062 228.796875 C 453.9375 229.007812 453.867188 231.257812 454.078125 233.789062 L 454.429688 238.359375 L 450.421875 238.359375 L 452.671875 240.679688 C 454.992188 243.070312 455.484375 245.25 454.078125 246.65625 C 453.445312 247.289062 453.445312 247.921875 454.078125 249.257812 C 454.640625 250.453125 454.921875 256.21875 454.921875 266.484375 L 454.921875 281.953125 L 453.164062 281.953125 C 451.617188 281.953125 451.476562 282.164062 452.109375 283.289062 C 453.164062 285.398438 452.953125 286.945312 451.265625 288.773438 C 450.070312 290.039062 449.789062 291.09375 449.929688 293.554688 L 450.140625 296.71875 L 447.609375 296.71875 C 444.585938 296.71875 444.445312 297.492188 446.976562 299.53125 L 448.875 301.007812 L 449.15625 321.960938 L 449.507812 342.914062 L 447.820312 343.335938 C 446.90625 343.546875 442.195312 343.828125 437.34375 343.898438 C 428.34375 343.96875 427.429688 343.6875 428.765625 341.226562 C 429.328125 340.3125 429.1875 339.820312 428.34375 339.1875 C 427.359375 338.484375 427.148438 336.9375 427.007812 331.382812 C 426.9375 327.585938 426.796875 324.421875 426.726562 324.28125 C 426.65625 324.210938 426.585938 323.71875 426.515625 323.296875 C 426.515625 322.804688 425.882812 322.3125 425.25 322.171875 C 424.335938 322.03125 423.984375 322.382812 423.984375 323.367188 C 423.984375 324.210938 423.703125 324.84375 423.351562 324.84375 C 423 324.84375 422.929688 326.25 423.070312 327.9375 C 423.28125 329.695312 423.210938 332.859375 423 334.96875 C 422.578125 338.203125 422.296875 338.765625 421.3125 338.414062 C 420.679688 338.132812 413.929688 332.015625 406.335938 324.703125 L 392.554688 311.484375 L 384.117188 311.484375 C 379.476562 311.484375 374.203125 311.273438 372.375 311.0625 L 369.140625 310.570312 L 369.140625 304.875 C 369.140625 299.460938 369 298.96875 367.101562 297.140625 C 365.414062 295.523438 364.640625 295.242188 361.757812 295.453125 C 357.046875 295.734375 355.921875 297.492188 355.289062 304.945312 L 354.867188 310.710938 L 321.75 310.289062 C 303.539062 310.078125 278.648438 310.289062 266.484375 310.640625 C 254.320312 311.0625 244.195312 311.273438 244.054688 311.132812 C 243.914062 310.992188 244.125 309.9375 244.546875 308.8125 C 245.039062 307.335938 245.039062 306.492188 244.476562 305.929688 C 243.984375 305.4375 244.265625 304.804688 245.601562 303.75 C 247.992188 301.851562 247.992188 300.9375 245.671875 300.9375 C 243.914062 300.9375 243.84375 300.867188 244.125 296.507812 C 244.335938 292.640625 244.125 292.007812 242.648438 290.8125 C 241.03125 289.476562 241.03125 289.265625 241.3125 278.929688 C 241.523438 269.015625 241.59375 268.382812 243.140625 267.1875 L 244.757812 265.851562 L 242.789062 264.9375 C 241.171875 264.164062 240.820312 263.53125 240.75 261.210938 C 240.679688 259.664062 240.257812 257.484375 239.835938 256.429688 C 239.414062 255.304688 239.203125 254.109375 239.484375 253.757812 C 239.695312 253.40625 239.203125 253.125 238.5 253.125 C 236.882812 253.125 235.265625 251.367188 235.828125 250.382812 C 236.742188 248.976562 233.367188 241.945312 230.625 239.484375 C 229.078125 238.078125 227.8125 236.671875 227.8125 236.320312 C 227.8125 235.96875 227.320312 235.335938 226.757812 234.84375 C 225.984375 234.210938 225.914062 233.71875 226.40625 233.085938 C 226.96875 232.453125 226.96875 232.03125 226.40625 231.679688 C 225.984375 231.398438 225.84375 230.132812 226.125 228.445312 C 226.476562 226.546875 226.335938 225.703125 225.773438 225.703125 C 225.28125 225.703125 225.070312 225.421875 225.351562 225.070312 C 225.5625 224.71875 225.421875 224.226562 225 223.945312 C 224.648438 223.734375 224.296875 222.890625 224.296875 222.117188 C 224.296875 220.429688 223.101562 220.359375 222.679688 221.976562 C 222.398438 223.171875 222.328125 223.171875 222.257812 221.976562 C 222.257812 221.34375 221.835938 220.78125 221.414062 220.78125 C 220.851562 220.78125 220.78125 222.257812 221.132812 225.703125 C 221.484375 229.078125 221.34375 230.976562 220.851562 231.609375 C 220.289062 232.242188 220.289062 232.734375 220.710938 233.015625 C 221.695312 233.648438 219.726562 237.09375 217.265625 238.921875 C 214.734375 240.820312 212.414062 245.109375 211.78125 249.117188 C 211.429688 251.15625 210.796875 252.28125 209.742188 252.703125 C 208.054688 253.476562 206.578125 257.625 207.140625 260.015625 C 207.632812 261.84375 205.804688 265.078125 204.257812 265.078125 C 202.710938 265.078125 202.992188 266.132812 204.75 267.328125 C 206.15625 268.242188 206.296875 269.015625 206.578125 278.367188 L 206.929688 288.351562 L 204.609375 290.742188 C 203.203125 292.148438 202.640625 293.203125 203.132812 293.484375 C 203.554688 293.765625 203.90625 295.523438 203.90625 297.492188 C 203.90625 300.867188 203.835938 300.9375 201.796875 300.9375 C 199.125 300.9375 199.125 301.851562 201.867188 303.820312 C 203.34375 304.875 203.765625 305.578125 203.273438 306.070312 C 202.851562 306.492188 202.710938 308.039062 202.992188 309.726562 L 203.34375 312.75 L 197.15625 313.171875 C 190.476562 313.664062 159.679688 315 155.25 315 C 152.859375 315 152.578125 314.789062 152.578125 313.3125 C 152.578125 312.328125 152.296875 311.34375 151.875 311.132812 C 151.453125 310.921875 151.171875 311.414062 151.171875 312.398438 C 151.171875 313.382812 150.679688 314.578125 149.976562 315.070312 C 148.921875 315.984375 148.851562 315.351562 149.273438 306 C 149.554688 299.882812 149.414062 296.015625 148.992188 296.015625 C 148.640625 296.015625 148.359375 294.890625 148.359375 293.554688 C 148.359375 292.21875 148.078125 291.09375 147.65625 291.09375 C 147.304688 291.09375 146.953125 291.867188 146.953125 292.851562 C 146.953125 293.835938 146.601562 294.609375 146.25 294.609375 C 145.476562 294.609375 145.6875 289.40625 146.601562 287.367188 C 146.882812 286.734375 146.882812 284.976562 146.601562 283.5 C 146.179688 281.320312 145.96875 281.109375 145.546875 282.304688 C 144.773438 284.203125 144.28125 282.726562 143.929688 277.664062 C 143.789062 275.554688 143.4375 273.445312 143.226562 273.023438 C 142.945312 272.601562 142.875 270.984375 143.015625 269.367188 C 143.15625 267.679688 142.875 266.203125 142.382812 265.78125 C 140.976562 264.65625 139.921875 266.554688 140.34375 269.578125 C 140.484375 270.984375 140.414062 272.601562 140.132812 273.023438 C 139.429688 274.21875 139.078125 276.257812 139.148438 279.632812 C 139.21875 281.25 138.9375 282.796875 138.515625 283.007812 C 138.164062 283.21875 137.8125 282.867188 137.8125 282.164062 C 137.8125 281.109375 137.671875 281.039062 137.109375 281.953125 C 136.40625 283.007812 136.335938 290.109375 137.039062 291.445312 C 137.671875 292.710938 137.671875 293.90625 137.039062 294.328125 C 136.6875 294.539062 136.40625 293.90625 136.40625 292.921875 C 136.40625 291.9375 136.125 291.09375 135.703125 291.09375 C 135 291.09375 134.789062 291.9375 134.929688 293.976562 C 135 294.609375 134.578125 295.523438 133.945312 296.015625 C 132.75 297 132.539062 300.585938 133.59375 301.289062 C 134.507812 301.851562 134.507812 315.703125 133.59375 315.703125 C 133.171875 315.703125 132.679688 314.71875 132.398438 313.59375 C 131.976562 311.273438 130.78125 310.710938 130.78125 312.820312 C 130.78125 315.492188 130.007812 316.40625 127.546875 316.40625 C 125.296875 316.40625 125.15625 316.265625 123.75 311.765625 C 122.976562 309.234375 122.34375 306.070312 122.34375 304.804688 C 122.34375 303.46875 122.0625 302.203125 121.640625 301.992188 C 121.21875 301.710938 121.359375 300.796875 121.992188 299.460938 C 122.695312 298.195312 122.765625 297.421875 122.34375 297.421875 C 121.921875 297.421875 121.640625 297 121.78125 296.507812 C 121.851562 296.085938 121.429688 294.679688 120.796875 293.554688 C 119.953125 291.9375 119.671875 288.984375 119.601562 281.390625 C 119.601562 275.835938 119.390625 270.984375 119.179688 270.703125 C 118.96875 270.351562 119.179688 270 119.601562 269.859375 C 120.234375 269.648438 120.234375 269.226562 119.601562 268.101562 C 119.179688 267.257812 118.828125 265.78125 118.828125 264.796875 C 118.828125 263.882812 118.476562 262.96875 118.054688 262.828125 C 116.507812 262.335938 113.695312 252.914062 113.625 248.0625 C 113.554688 244.617188 113.203125 243 112.359375 242.085938 C 111.234375 240.960938 111.023438 240.960938 109.828125 242.085938 C 108.632812 243.210938 108.351562 243.070312 105.257812 239.90625 C 103.429688 238.078125 101.953125 236.179688 101.953125 235.757812 C 101.953125 235.335938 100.828125 234 99.492188 232.945312 C 97.171875 230.976562 97.03125 230.625 97.171875 227.039062 C 97.242188 224.929688 97.59375 222.820312 98.015625 222.328125 C 98.507812 221.625 98.367188 221.132812 97.453125 220.640625 C 96.46875 220.078125 96.398438 219.796875 97.03125 219.375 C 97.734375 218.953125 97.59375 218.25 96.46875 216.210938 C 95.0625 213.960938 94.921875 212.625 94.921875 203.90625 C 94.921875 197.859375 95.203125 193.992188 95.625 193.710938 C 96.1875 193.359375 96.1875 192.9375 95.695312 192.375 C 95.273438 191.882812 95.203125 191.179688 95.554688 190.828125 C 95.90625 190.476562 96.398438 189.492188 96.679688 188.578125 C 97.03125 187.3125 96.820312 187.03125 95.625 187.03125 C 94.429688 187.03125 94.21875 186.75 94.570312 185.695312 C 94.851562 184.710938 94.570312 184.078125 93.515625 183.515625 C 92.390625 182.882812 92.109375 182.039062 92.109375 179.226562 C 92.109375 175.21875 90.773438 172.6875 87.679688 171.070312 C 86.0625 170.226562 85.78125 169.875 86.554688 169.382812 C 87.328125 168.890625 87.1875 168.46875 85.78125 167.34375 C 84.796875 166.570312 83.8125 165.9375 83.53125 165.9375 C 83.179688 165.9375 82.96875 164.53125 82.96875 162.773438 C 82.96875 161.015625 82.6875 159.609375 82.40625 159.609375 C 81.632812 159.609375 81.773438 157.429688 82.546875 156.164062 C 82.898438 155.671875 82.757812 154.898438 82.335938 154.476562 C 81.351562 153.492188 81.351562 150.117188 82.40625 148.429688 C 83.601562 146.460938 82.617188 144.703125 80.367188 144.984375 C 78.117188 145.265625 77.484375 147.023438 78.75 149.484375 C 79.242188 150.398438 79.453125 151.804688 79.171875 152.71875 C 78.890625 153.632812 78.539062 156.726562 78.328125 159.609375 C 78.046875 164.460938 77.835938 165.023438 75.9375 166.710938 C 74.53125 167.835938 73.96875 168.960938 74.179688 169.664062 C 74.460938 170.367188 74.109375 170.859375 73.195312 171.210938 C 70.664062 171.984375 68.90625 175.289062 68.90625 179.15625 C 68.90625 182.179688 68.625 182.8125 67.078125 183.867188 C 65.601562 184.851562 65.390625 185.203125 66.164062 185.695312 C 66.9375 186.1875 66.796875 186.398438 65.53125 186.75 C 64.195312 187.101562 63.984375 187.523438 64.335938 188.71875 C 64.617188 189.492188 64.898438 191.039062 64.96875 192.09375 C 64.96875 193.078125 65.25 194.203125 65.53125 194.484375 C 65.882812 194.765625 66.09375 199.125 66.09375 204.1875 C 66.09375 212.273438 65.882812 213.679688 64.617188 215.789062 C 63.84375 217.054688 63.351562 218.601562 63.632812 219.234375 C 63.84375 219.796875 63.632812 220.570312 63.210938 220.851562 C 62.71875 221.132812 62.578125 221.835938 62.929688 222.609375 C 63.210938 223.382812 63.5625 225.492188 63.703125 227.390625 C 63.984375 230.625 63.84375 230.976562 61.523438 232.875 C 60.1875 234 59.0625 235.335938 59.0625 235.757812 C 59.0625 236.179688 57.585938 238.078125 55.757812 239.90625 C 52.59375 243.070312 52.382812 243.210938 51.117188 242.085938 C 50.132812 241.171875 49.570312 241.03125 48.65625 241.664062 C 47.671875 242.226562 47.53125 243.28125 47.671875 246.867188 C 47.8125 250.3125 47.53125 252 46.476562 254.109375 C 45.632812 255.65625 44.789062 258.046875 44.578125 259.382812 C 44.367188 260.789062 43.734375 262.265625 43.242188 262.617188 C 41.90625 263.742188 41.484375 267.398438 41.414062 279.773438 C 41.34375 289.898438 41.203125 291.515625 39.9375 293.625 C 39.164062 294.960938 38.742188 296.015625 39.023438 296.015625 C 39.304688 296.015625 39.164062 296.507812 38.671875 297.070312 C 37.96875 297.914062 38.039062 298.40625 38.8125 299.671875 C 39.445312 300.585938 39.65625 301.710938 39.375 302.34375 C 39.09375 302.90625 38.460938 305.4375 37.96875 307.96875 C 37.054688 313.242188 33.75 320.203125 32.0625 320.484375 C 31.148438 320.695312 30.9375 320.132812 30.867188 317.671875 C 30.796875 315.984375 30.515625 313.664062 30.234375 312.539062 C 29.742188 310.359375 29.601562 310.429688 28.195312 315 C 27.632812 316.96875 27.492188 315.28125 27.703125 307.125 C 27.84375 301.5 27.703125 296.578125 27.421875 296.226562 C 27.070312 295.945312 26.71875 294.679688 26.578125 293.554688 C 26.296875 291.09375 25.171875 290.953125 24.46875 293.34375 C 24.257812 294.257812 24.1875 291.867188 24.398438 288.070312 C 24.679688 283.289062 24.539062 281.25 23.976562 281.25 C 23.554688 281.25 23.203125 281.601562 23.203125 282.023438 C 23.203125 282.375 22.851562 282.515625 22.429688 282.234375 C 21.9375 281.953125 21.867188 280.828125 22.148438 279.351562 C 22.429688 277.875 22.289062 276.539062 21.796875 275.976562 C 21.304688 275.414062 21.164062 274.640625 21.445312 274.21875 C 21.65625 273.867188 21.65625 273.09375 21.304688 272.671875 C 21.023438 272.179688 20.742188 270.492188 20.742188 268.945312 C 20.742188 266.90625 20.460938 266.132812 19.6875 266.132812 C 18.914062 266.132812 18.632812 266.90625 18.632812 268.945312 C 18.632812 270.492188 18.351562 272.179688 18.070312 272.671875 C 17.71875 273.09375 17.71875 273.867188 17.929688 274.21875 C 18.210938 274.640625 18 275.414062 17.578125 275.976562 C 17.015625 276.609375 16.875 277.945312 17.15625 279.421875 C 17.4375 280.828125 17.296875 282.023438 16.875 282.304688 C 16.523438 282.515625 16.171875 282.375 16.171875 282.023438 C 16.171875 281.601562 15.820312 281.25 15.398438 281.25 C 14.835938 281.25 14.695312 283.289062 14.976562 288.140625 C 15.1875 291.867188 15.117188 294.257812 14.90625 293.34375 C 14.203125 290.953125 13.078125 291.09375 12.796875 293.554688 C 12.65625 294.679688 12.304688 295.945312 11.953125 296.226562 C 11.671875 296.578125 11.53125 301.5 11.671875 307.125 C 11.882812 315.28125 11.742188 316.96875 11.179688 315 C 10.757812 313.664062 10.195312 312.046875 9.984375 311.484375 C 9.351562 309.65625 8.578125 314.226562 8.507812 320.765625 C 8.4375 326.460938 8.296875 326.953125 7.03125 326.953125 C 5.273438 326.953125 4.21875 329.414062 4.21875 333.351562 C 4.21875 335.109375 3.867188 336.304688 3.234375 336.515625 C 1.828125 337.078125 1.265625 338.90625 2.109375 339.960938 C 2.460938 340.382812 3.234375 342.070312 3.796875 343.6875 C 4.851562 346.570312 4.78125 346.78125 2.460938 351.703125 L 0 356.765625 L 0 418.359375 L 900 418.359375 L 900 307.265625 L 894.375 307.265625 C 889.453125 307.265625 888.75 307.125 888.75 306 C 888.75 305.296875 887.414062 304.03125 885.375 302.90625 L 882 301.007812 L 878.132812 303.1875 C 876.09375 304.382812 874.757812 305.507812 875.25 305.71875 C 875.953125 305.929688 875.882812 306.28125 874.96875 307.335938 C 873.914062 308.53125 872.648438 308.671875 862.242188 308.671875 L 850.78125 308.671875 L 850.78125 274.992188 L 852.890625 271.96875 C 854.648438 269.367188 854.789062 268.804688 853.945312 268.171875 C 853.382812 267.75 852.890625 266.203125 852.890625 264.796875 C 852.890625 262.335938 852.820312 262.265625 850.078125 262.265625 L 847.265625 262.265625 L 847.265625 223.3125 L 849.515625 220.992188 C 851.554688 218.882812 851.625 218.601562 850.640625 217.476562 C 850.007812 216.773438 849.375 214.101562 849.09375 211.429688 C 848.109375 201.164062 843.820312 193.007812 837.351562 189 C 835.242188 187.664062 833.90625 186.328125 833.90625 185.484375 C 833.90625 184.78125 833.414062 184.007812 832.851562 183.796875 C 831.445312 183.234375 831.445312 178.382812 832.851562 177.1875 C 833.625 176.554688 833.695312 176.0625 833.132812 175.359375 C 832.21875 174.234375 832.429688 158.203125 833.414062 156.9375 C 833.835938 156.375 833.765625 155.742188 833.203125 155.039062 C 832.429688 154.125 832.570312 153.632812 833.835938 152.296875 L 835.453125 150.609375 L 832.289062 148.429688 C 830.179688 147.023438 828.492188 145.054688 827.296875 142.59375 L 825.46875 138.9375 L 827.15625 137.179688 C 829.546875 134.578125 830.390625 132.609375 830.390625 129.65625 C 830.390625 127.40625 829.898438 126.5625 827.15625 124.03125 C 823.21875 120.304688 822.375 117.84375 821.25 106.171875 C 820.054688 93.445312 819.28125 57.585938 820.195312 56.039062 C 820.6875 55.195312 820.617188 54.421875 819.984375 53.4375 C 818.859375 51.609375 819.421875 50.625 821.25 51.117188 C 823.148438 51.609375 823.078125 50.203125 821.179688 49.148438 C 819.070312 48.09375 820.617188 47.109375 824.625 47.109375 C 828.492188 47.109375 828.703125 45.351562 824.90625 44.789062 C 820.546875 44.085938 819.914062 43.171875 819.28125 36.914062 L 818.71875 31.289062 Z M 818.226562 34.734375 "/>
</g>
</svg>
